<svg width="65" height="20" viewBox="0 0 65 20" fill="none" xmlns="http://www.w3.org/2000/svg">
<path d="M8.96662 0.818181H12.2337V13.6023C12.2277 14.7741 11.9792 15.7833 11.4879 16.6296C10.9967 17.4701 10.3101 18.1181 9.42827 18.5739C8.55232 19.0237 7.53137 19.2486 6.36541 19.2486C5.30007 19.2486 4.34126 19.0592 3.48899 18.6804C2.64264 18.2957 1.97088 17.7275 1.47372 16.9759C0.976563 16.2242 0.727983 15.2891 0.727983 14.1705H4.00391C4.00982 14.6617 4.11636 15.0849 4.32351 15.44C4.53658 15.7951 4.82955 16.0674 5.20241 16.2567C5.57528 16.4461 6.00438 16.5408 6.4897 16.5408C7.01645 16.5408 7.46331 16.4313 7.83026 16.2124C8.19721 15.9875 8.47538 15.656 8.66477 15.218C8.86009 14.7801 8.9607 14.2415 8.96662 13.6023V0.818181ZM20.1007 0.818181V19H16.807V0.818181H20.1007ZM24.6673 0.818181H28.6979L34.0956 13.9929H34.3087L39.7064 0.818181H43.7369V19H40.5764V6.50888H40.4078L35.3829 18.9467H33.0214L27.9965 6.48224H27.8279V19H24.6673V0.818181ZM64.57 9.90909C64.57 11.8681 64.2031 13.546 63.4692 14.9428C62.7412 16.3337 61.7469 17.399 60.4862 18.1388C59.2315 18.8787 57.8081 19.2486 56.216 19.2486C54.6239 19.2486 53.1975 18.8787 51.9369 18.1388C50.6821 17.3931 49.6878 16.3248 48.9539 14.9339C48.2259 13.5372 47.8619 11.8622 47.8619 9.90909C47.8619 7.95005 48.2259 6.27509 48.9539 4.88423C49.6878 3.48745 50.6821 2.41915 51.9369 1.67933C53.1975 0.939511 54.6239 0.569602 56.216 0.569602C57.8081 0.569602 59.2315 0.939511 60.4862 1.67933C61.7469 2.41915 62.7412 3.48745 63.4692 4.88423C64.2031 6.27509 64.57 7.95005 64.57 9.90909ZM61.2586 9.90909C61.2586 8.53007 61.0426 7.36707 60.6105 6.4201C60.1844 5.46721 59.5925 4.74811 58.835 4.26278C58.0774 3.77154 57.2044 3.52592 56.216 3.52592C55.2276 3.52592 54.3546 3.77154 53.597 4.26278C52.8395 4.74811 52.2446 5.46721 51.8126 6.4201C51.3865 7.36707 51.1734 8.53007 51.1734 9.90909C51.1734 11.2881 51.3865 12.4541 51.8126 13.407C52.2446 14.3539 52.8395 15.073 53.597 15.5643C54.3546 16.0496 55.2276 16.2923 56.216 16.2923C57.2044 16.2923 58.0774 16.0496 58.835 15.5643C59.5925 15.073 60.1844 14.3539 60.6105 13.407C61.0426 12.4541 61.2586 11.2881 61.2586 9.90909Z" fill="black"/>
</svg>
